REM DIRINDEX 1\6,1\2\7,1\2\8,1\2\9,1\3\10,1\3\11,1\4\12,1\4\13,1\4\14,1\5\15,1\5\16,1\5\17
REM DIRNAME cjc041,folder01,folder02,folder03,folder04,folder05,folder06,folder07,folder08,folder09,folder10,folder11,folder12,folder13,folder14,folder15,folder16
TITLE ""
FILE "3Q_t2_0771-0786.mp3" MP3
  TRACK 01 AUDIO
    TITLE "7:cjc041_5731"
    INDEX 01 00:00:00
  TRACK 02 AUDIO
    TITLE "0:"
    INDEX 01 00:00:74
  TRACK 03 AUDIO
    TITLE "8:cjc041_5732"
    INDEX 01 00:01:54
  TRACK 04 AUDIO
    TITLE "0:"
    INDEX 01 00:02:43
  TRACK 05 AUDIO
    TITLE "9:cjc041_5733"
    INDEX 01 00:03:23
  TRACK 06 AUDIO
    TITLE "0:"
    INDEX 01 00:04:31
  TRACK 07 AUDIO
    TITLE "7:cjc041_5734"
    INDEX 01 00:06:16
  TRACK 08 AUDIO
    TITLE "0:"
    INDEX 01 00:07:25
  TRACK 09 AUDIO
    TITLE "8:cjc041_5735"
    INDEX 01 00:08:01
  TRACK 10 AUDIO
    TITLE "0:"
    INDEX 01 00:08:64
  TRACK 11 AUDIO
    TITLE "9:cjc041_5736"
    INDEX 01 00:09:51
  TRACK 12 AUDIO
    TITLE "0:"
    INDEX 01 00:10:61
  TRACK 13 AUDIO
    TITLE "7:cjc041_5737"
    INDEX 01 00:12:32
  TRACK 14 AUDIO
    TITLE "0:"
    INDEX 01 00:13:37
  TRACK 15 AUDIO
    TITLE "8:cjc041_5738"
    INDEX 01 00:14:17
  TRACK 16 AUDIO
    TITLE "0:"
    INDEX 01 00:16:34
  TRACK 17 AUDIO
    TITLE "9:cjc041_5739"
    INDEX 01 00:17:14
  TRACK 18 AUDIO
    TITLE "0:"
    INDEX 01 00:18:23
  TRACK 19 AUDIO
    TITLE "7:cjc041_5740"
    INDEX 01 00:20:04
  TRACK 20 AUDIO
    TITLE "0:"
    INDEX 01 00:21:31
  TRACK 21 AUDIO
    TITLE "8:cjc041_5741"
    INDEX 01 00:22:05
  TRACK 22 AUDIO
    TITLE "0:"
    INDEX 01 00:23:40
  TRACK 23 AUDIO
    TITLE "9:cjc041_5742"
    INDEX 01 00:24:18
  TRACK 24 AUDIO
    TITLE "0:"
    INDEX 01 00:25:50
  TRACK 25 AUDIO
    TITLE "7:cjc041_5743"
    INDEX 01 00:27:32
  TRACK 26 AUDIO
    TITLE "0:"
    INDEX 01 00:28:25
  TRACK 27 AUDIO
    TITLE "8:cjc041_5744"
    INDEX 01 00:29:07
  TRACK 28 AUDIO
    TITLE "0:"
    INDEX 01 00:30:10
  TRACK 29 AUDIO
    TITLE "9:cjc041_5745"
    INDEX 01 00:30:61
  TRACK 30 AUDIO
    TITLE "0:"
    INDEX 01 00:31:61
  TRACK 31 AUDIO
    TITLE "7:cjc041_5746"
    INDEX 01 00:33:40
  TRACK 32 AUDIO
    TITLE "0:"
    INDEX 01 00:34:55
  TRACK 33 AUDIO
    TITLE "8:cjc041_5747"
    INDEX 01 00:35:31
  TRACK 34 AUDIO
    TITLE "0:"
    INDEX 01 00:38:20
  TRACK 35 AUDIO
    TITLE "9:cjc041_5748"
    INDEX 01 00:38:71
  TRACK 36 AUDIO
    TITLE "0:"
    INDEX 01 00:40:11
  TRACK 37 AUDIO
    TITLE "7:cjc041_5749"
    INDEX 01 00:41:65
  TRACK 38 AUDIO
    TITLE "0:"
    INDEX 01 00:42:68
  TRACK 39 AUDIO
    TITLE "8:cjc041_5750"
    INDEX 01 00:43:46
  TRACK 40 AUDIO
    TITLE "0:"
    INDEX 01 00:44:26
  TRACK 41 AUDIO
    TITLE "9:cjc041_5751"
    INDEX 01 00:44:73
  TRACK 42 AUDIO
    TITLE "0:"
    INDEX 01 00:46:02
  TRACK 43 AUDIO
    TITLE "7:cjc041_5752"
    INDEX 01 00:47:56
  TRACK 44 AUDIO
    TITLE "0:"
    INDEX 01 00:49:04
  TRACK 45 AUDIO
    TITLE "8:cjc041_5753"
    INDEX 01 00:49:53
  TRACK 46 AUDIO
    TITLE "0:"
    INDEX 01 00:50:62
  TRACK 47 AUDIO
    TITLE "9:cjc041_5754"
    INDEX 01 00:51:38
  TRACK 48 AUDIO
    TITLE "0:"
    INDEX 01 00:52:65
  TRACK 49 AUDIO
    TITLE "7:cjc041_5755"
    INDEX 01 00:54:40
  TRACK 50 AUDIO
    TITLE "0:"
    INDEX 01 00:55:53
  TRACK 51 AUDIO
    TITLE "8:cjc041_5756"
    INDEX 01 00:56:29
  TRACK 52 AUDIO
    TITLE "0:"
    INDEX 01 00:57:35
  TRACK 53 AUDIO
    TITLE "9:cjc041_5757"
    INDEX 01 00:58:11
  TRACK 54 AUDIO
    TITLE "0:"
    INDEX 01 00:59:26
  TRACK 55 AUDIO
    TITLE "7:cjc041_5758"
    INDEX 01 01:01:07
  TRACK 56 AUDIO
    TITLE "0:"
    INDEX 01 01:02:16
  TRACK 57 AUDIO
    TITLE "8:cjc041_5759"
    INDEX 01 01:02:73
  TRACK 58 AUDIO
    TITLE "0:"
    INDEX 01 01:04:41
  TRACK 59 AUDIO
    TITLE "9:cjc041_5760"
    INDEX 01 01:05:19
  TRACK 60 AUDIO
    TITLE "0:"
    INDEX 01 01:06:32
  TRACK 61 AUDIO
    TITLE "7:cjc041_5761"
    INDEX 01 01:08:11
  TRACK 62 AUDIO
    TITLE "0:"
    INDEX 01 01:09:28
  TRACK 63 AUDIO
    TITLE "8:cjc041_5762"
    INDEX 01 01:10:12
  TRACK 64 AUDIO
    TITLE "0:"
    INDEX 01 01:11:02
  TRACK 65 AUDIO
    TITLE "9:cjc041_5763"
    INDEX 01 01:11:60
  TRACK 66 AUDIO
    TITLE "0:"
    INDEX 01 01:13:02
  TRACK 67 AUDIO
    TITLE "7:cjc041_5764"
    INDEX 01 01:14:61
  TRACK 68 AUDIO
    TITLE "0:"
    INDEX 01 01:16:11
  TRACK 69 AUDIO
    TITLE "8:cjc041_5765"
    INDEX 01 01:16:60
  TRACK 70 AUDIO
    TITLE "0:"
    INDEX 01 01:18:02
  TRACK 71 AUDIO
    TITLE "9:cjc041_5766"
    INDEX 01 01:18:47
  TRACK 72 AUDIO
    TITLE "0:"
    INDEX 01 01:19:74
  TRACK 73 AUDIO
    TITLE "7:cjc041_5767"
    INDEX 01 01:21:47
  TRACK 74 AUDIO
    TITLE "0:"
    INDEX 01 01:22:50
  TRACK 75 AUDIO
    TITLE "8:cjc041_5768"
    INDEX 01 01:23:24
  TRACK 76 AUDIO
    TITLE "0:"
    INDEX 01 01:25:68
  TRACK 77 AUDIO
    TITLE "9:cjc041_5769"
    INDEX 01 01:26:42
  TRACK 78 AUDIO
    TITLE "0:"
    INDEX 01 01:27:46
  TRACK 79 AUDIO
    TITLE "7:cjc041_5770"
    INDEX 01 01:29:23
  TRACK 80 AUDIO
    TITLE "0:"
    INDEX 01 01:30:38
  TRACK 81 AUDIO
    TITLE "8:cjc041_5771"
    INDEX 01 01:31:18
  TRACK 82 AUDIO
    TITLE "0:"
    INDEX 01 01:33:07
  TRACK 83 AUDIO
    TITLE "9:cjc041_5772"
    INDEX 01 01:33:60
  TRACK 84 AUDIO
    TITLE "0:"
    INDEX 01 01:35:02
  TRACK 85 AUDIO
    TITLE "7:cjc041_5773"
    INDEX 01 01:36:56
  TRACK 86 AUDIO
    TITLE "0:"
    INDEX 01 01:37:64
  TRACK 87 AUDIO
    TITLE "8:cjc041_5774"
    INDEX 01 01:38:43
  TRACK 88 AUDIO
    TITLE "0:"
    INDEX 01 01:39:43
  TRACK 89 AUDIO
    TITLE "9:cjc041_5775"
    INDEX 01 01:40:19
  TRACK 90 AUDIO
    TITLE "0:"
    INDEX 01 01:41:28
  TRACK 91 AUDIO
    TITLE "7:cjc041_5776"
    INDEX 01 01:43:13
  TRACK 92 AUDIO
    TITLE "0:"
    INDEX 01 01:44:19
  TRACK 93 AUDIO
    TITLE "8:cjc041_5777"
    INDEX 01 01:44:66
  TRACK 94 AUDIO
    TITLE "0:"
    INDEX 01 01:46:14
  TRACK 95 AUDIO
    TITLE "9:cjc041_5778"
    INDEX 01 01:46:68
  TRACK 96 AUDIO
    TITLE "0:"
    INDEX 01 01:48:01
